<?xml version="1.0" encoding="UTF-8" standalone="no"?>
<!-- Created with Inkscape (http://www.inkscape.org/) -->

<svg
   width="104.5915mm"
   height="25mm"
   viewBox="0 0 104.5915 25"
   version="1.1"
   id="svg5"
   inkscape:version="1.1 (c4e8f9e, 2021-05-24)"
   sodipodi:docname="ca header image.svg"
   xmlns:inkscape="http://www.inkscape.org/namespaces/inkscape"
   xmlns:sodipodi="http://sodipodi.sourceforge.net/DTD/sodipodi-0.dtd"
   xmlns="http://www.w3.org/2000/svg"
   xmlns:svg="http://www.w3.org/2000/svg">
  <sodipodi:namedview
     id="namedview7"
     pagecolor="#ffffff"
     bordercolor="#666666"
     borderopacity="1.0"
     inkscape:pageshadow="2"
     inkscape:pageopacity="0.0"
     inkscape:pagecheckerboard="0"
     inkscape:document-units="mm"
     showgrid="false"
     inkscape:snap-bbox="true"
     inkscape:bbox-paths="true"
     inkscape:snap-bbox-edge-midpoints="true"
     inkscape:snap-bbox-midpoints="true"
     inkscape:bbox-nodes="true"
     inkscape:object-paths="true"
     inkscape:snap-intersection-paths="true"
     inkscape:snap-smooth-nodes="true"
     inkscape:snap-midpoints="true"
     inkscape:snap-object-midpoints="true"
     inkscape:snap-text-baseline="true"
     inkscape:snap-page="true"
     inkscape:snap-center="true"
     inkscape:zoom="0.35892843"
     inkscape:cx="260.49761"
     inkscape:cy="585.07485"
     inkscape:window-width="1293"
     inkscape:window-height="791"
     inkscape:window-x="0"
     inkscape:window-y="25"
     inkscape:window-maximized="0"
     inkscape:current-layer="layer1" />
  <defs
     id="defs2" />
  <g
     inkscape:label="Layer 1"
     inkscape:groupmode="layer"
     id="layer1"
     transform="translate(-5.9730427,-68.704384)">
    <g
       id="g18398" />
    <g
       id="g5897"
       transform="matrix(1.0101762,0,0,1.0102399,752.6922,-497.4903)">
      <g
         id="g1964"
         transform="matrix(0.10004982,4.3341657e-5,4.3341657e-5,0.10004982,-672.04305,518.96637)">
        <path
           id="rect5881"
           style="fill:#ffffff;stroke-width:0.265674"
           transform="rotate(45)"
           d="m -93.891205,680.68195 h 31.966314 v 32.11568 h -31.966314 z" />
        <path
           id="rect5883"
           style="fill:#00b050;stroke-width:0.518205"
           transform="rotate(45)"
           d="M -56.810398,680.67773 H 64.79163 V 712.7976 H -56.810398 Z" />
        <path
           id="rect5885"
           style="fill:#ffffff;stroke-width:0.154746"
           transform="rotate(45)"
           d="M 70.095108,680.67773 H 80.938777 V 712.7976 H 70.095108 Z" />
        <path
           id="rect5887"
           style="fill:#ffffff;stroke-width:0.486138"
           transform="rotate(45)"
           d="m 38.156399,717.56097 h 42.774029 v 80.36202 H 38.156399 Z" />
        <path
           id="rect5889"
           style="fill:#ffffff;stroke-width:0.526964"
           transform="rotate(45)"
           d="M -93.898346,717.65302 H 33.105896 v 31.80205 H -93.898346 Z" />
        <path
           id="rect5891"
           style="fill:#00b050;stroke-width:0.609696"
           transform="rotate(45)"
           d="M -93.890137,754.8703 H 33.105896 v 42.57438 H -93.890137 Z" />
        <path
           id="rect5893"
           style="fill:#ffffff;stroke-width:0.800721"
           transform="rotate(45)"
           d="M -93.890137,802.3197 H 80.919876 v 53.3467 H -93.890137 Z" />
        <path
           id="rect5895"
           style="fill:#ffffff;stroke-width:0.800721"
           transform="rotate(45)"
           d="M -93.890137,802.3197 H 80.919876 v 53.3467 H -93.890137 Z" />
      </g>
    </g>
    <g
       aria-label="CUPERTINO
ALLIANCE"
       id="text22460"
       style="font-weight:bold;font-size:15.9346px;line-height:1.25;font-family:'Kayak Sans';-inkscape-font-specification:'Kayak Sans Bold';fill:#ffffff;stroke:#ffffff;stroke-width:0.322635">
      <path
         d="m 38.487449,78.498052 q -1.493869,0 -2.310829,-1.050376 -0.816959,-1.058157 -0.816959,-2.979957 0,-1.9218 0.816959,-2.972177 0.81696,-1.058157 2.310829,-1.058157 2.007386,0 2.746539,1.820653 l 1.462747,-0.599104 q -0.55242,-1.353818 -1.6417,-2.077411 -1.089279,-0.715812 -2.567586,-0.715812 -2.178559,0 -3.439011,1.501649 -1.268232,1.50943 -1.268232,4.100359 0,2.598709 1.268232,4.100358 1.260452,1.50943 3.439011,1.50943 1.470527,0 2.575367,-0.739154 1.10484,-0.739154 1.64948,-2.085192 L 41.24955,76.661838 q -0.746935,1.836214 -2.762101,1.836214 z"
         id="path25890" />
      <path
         d="m 50.788524,75.432509 q 0,0.513517 -0.09337,0.96479 -0.108928,0.575762 -0.365686,0.995913 -0.653568,1.10484 -2.170778,1.10484 -1.50943,0 -2.170778,-1.10484 -0.248978,-0.420151 -0.365687,-0.995913 -0.08559,-0.451273 -0.08559,-0.96479 v -6.566798 h -1.579455 v 6.566798 q 0,2.147436 1.128182,3.400107 1.128182,1.244891 3.073324,1.244891 1.945141,0 3.073323,-1.244891 1.128183,-1.252671 1.128183,-3.400107 v -6.566798 h -1.571675 z"
         id="path25892" />
      <path
         d="m 55.962601,73.744126 v -3.29896 h 2.092972 q 0.816959,0 1.307135,0.311223 0.645787,0.41237 0.645787,1.338257 0,0.925887 -0.645787,1.338257 -0.490176,0.311223 -1.307135,0.311223 z m -1.579455,-4.878415 v 11.211796 h 1.579455 v -4.753926 h 2.092972 q 1.610577,0 2.567587,-0.879204 0.96479,-0.879204 0.96479,-2.349731 0,-1.470527 -0.96479,-2.349731 -0.95701,-0.879204 -2.567587,-0.879204 z"
         id="path25894" />
      <path
         d="m 62.848401,68.865711 v 11.211796 h 7.197024 v -1.579455 h -5.617569 v -3.236716 h 3.804697 v -1.579455 h -3.804697 v -3.244496 h 5.617569 v -1.571674 z"
         id="path25896" />
      <path
         d="m 72.861988,73.744126 v -3.306741 h 2.092972 q 0.82474,0 1.307135,0.319004 0.645787,0.41237 0.645787,1.338257 0,0.925887 -0.645787,1.338257 -0.482395,0.311223 -1.307135,0.311223 z m 5.625349,-1.64948 q 0,-1.470527 -0.96479,-2.349731 -0.95701,-0.879204 -2.567587,-0.879204 h -3.672427 v 11.211796 h 1.579455 v -4.753926 h 1.78953 l 2.279706,4.753926 h 1.742847 l -2.365292,-4.94844 q 1.027035,-0.326784 1.595016,-1.112621 0.583542,-0.801398 0.583542,-1.9218 z"
         id="path25898" />
      <path
         d="m 79.03198,68.865711 v 1.579455 h 3.205593 v 9.632341 h 1.579455 v -9.632341 h 3.205593 v -1.579455 z"
         id="path25900" />
      <path
         d="m 88.275293,80.077507 h 1.579455 V 68.865711 h -1.579455 z"
         id="path25902" />
      <path
         d="m 92.07221,68.865711 v 11.204015 h 1.579455 v -8.013983 l 4.217066,8.021764 h 1.672822 V 68.873491 h -1.571674 v 8.013984 l -4.217067,-8.021764 z"
         id="path25904" />
      <path
         d="m 105.81269,78.498052 q -1.43941,0 -2.22524,-1.050376 -0.78584,-1.058157 -0.78584,-2.979957 0,-1.9218 0.78584,-2.972177 0.78583,-1.058157 2.22524,-1.058157 1.4394,0 2.22524,1.058157 0.79362,1.050377 0.79362,2.972177 0,1.9218 -0.79362,2.979957 -0.78584,1.050376 -2.22524,1.050376 z m 0,-9.632341 q -2.1241,0 -3.35343,1.501649 -1.23711,1.50943 -1.23711,4.100359 0,2.598709 1.23711,4.100358 1.22933,1.50943 3.35343,1.50943 2.12409,0 3.3612,-1.50943 1.22933,-1.501649 1.22933,-4.100358 0,-2.590929 -1.22933,-4.100359 -1.23711,-1.501649 -3.3612,-1.501649 z"
         id="path25906" />
      <path
         d="m 39.312189,82.323485 -0.0078,0.0078 h -1.665041 v -0.0078 0.0078 l -3.859161,11.211796 h 1.665041 l 1.073718,-3.104446 h 3.913625 l 1.073718,3.104446 H 43.17135 L 39.312189,82.331266 Z m -2.256365,6.543457 1.416063,-4.11592 1.423844,4.11592 z"
         id="path25908" />
      <path
         d="m 44.424021,82.331266 v 11.211796 h 6.465651 v -1.579455 h -4.886196 v -9.632341 z"
         id="path25910" />
      <path
         d="m 52.142343,82.331266 v 11.211796 h 6.46565 v -1.579455 h -4.886195 v -9.632341 z"
         id="path25912" />
      <path
         d="M 59.860666,93.543062 H 61.44012 V 82.331266 h -1.579454 z"
         id="path25914" />
      <path
         d="m 68.224773,82.323485 -0.0078,0.0078 h -1.665041 v -0.0078 0.0078 L 62.69279,93.543062 h 1.665041 l 1.073719,-3.104446 h 3.913624 l 1.073719,3.104446 h 1.665041 L 68.224773,82.331266 Z m -2.256364,6.543457 1.416063,-4.11592 1.423843,4.11592 z"
         id="path25916" />
      <path
         d="m 73.336606,82.331266 v 11.204015 h 1.579455 v -8.013983 l 4.217067,8.021764 H 80.80595 V 82.339046 h -1.571674 v 8.013984 l -4.217067,-8.021764 z"
         id="path25918" />
      <path
         d="m 87.193793,91.963607 q -1.493869,0 -2.310828,-1.050376 -0.816959,-1.058157 -0.816959,-2.979957 0,-1.9218 0.816959,-2.972177 0.816959,-1.058157 2.310828,-1.058157 2.007386,0 2.74654,1.820653 l 1.462747,-0.599104 q -0.552421,-1.353818 -1.6417,-2.077411 -1.089279,-0.715812 -2.567587,-0.715812 -2.178558,0 -3.43901,1.501649 -1.268232,1.50943 -1.268232,4.100359 0,2.598709 1.268232,4.100358 1.260452,1.50943 3.43901,1.50943 1.470527,0 2.575368,-0.739154 1.10484,-0.739154 1.64948,-2.085192 l -1.462747,-0.591323 q -0.746934,1.836214 -2.762101,1.836214 z"
         id="path25920" />
      <path
         d="m 92.663533,82.331266 v 11.211796 h 7.197024 v -1.579455 h -5.617569 v -3.236716 h 3.804697 V 87.147436 H 94.242988 V 83.90294 h 5.617569 v -1.571674 z"
         id="path25922" />
    </g>
  </g>
</svg>
