<?xml version="1.0" encoding="UTF-8" standalone="no"?>
<!-- Created with Inkscape (http://www.inkscape.org/) -->

<svg
   width="50mm"
   height="10mm"
   viewBox="0 0 50 10"
   version="1.1"
   id="svg5"
   inkscape:version="1.1 (c4e8f9e, 2021-05-24)"
   sodipodi:docname="ca projects.svg"
   xmlns:inkscape="http://www.inkscape.org/namespaces/inkscape"
   xmlns:sodipodi="http://sodipodi.sourceforge.net/DTD/sodipodi-0.dtd"
   xmlns="http://www.w3.org/2000/svg"
   xmlns:svg="http://www.w3.org/2000/svg">
  <sodipodi:namedview
     id="namedview7"
     pagecolor="#ffffff"
     bordercolor="#666666"
     borderopacity="1.0"
     inkscape:pageshadow="2"
     inkscape:pageopacity="0.0"
     inkscape:pagecheckerboard="0"
     inkscape:document-units="mm"
     showgrid="false"
     inkscape:snap-bbox="true"
     inkscape:bbox-paths="true"
     inkscape:snap-bbox-edge-midpoints="true"
     inkscape:snap-bbox-midpoints="true"
     inkscape:bbox-nodes="true"
     inkscape:object-paths="true"
     inkscape:snap-intersection-paths="true"
     inkscape:snap-smooth-nodes="true"
     inkscape:snap-midpoints="true"
     inkscape:snap-object-midpoints="true"
     inkscape:snap-text-baseline="true"
     inkscape:snap-page="true"
     inkscape:snap-center="true"
     inkscape:zoom="2.1148276"
     inkscape:cx="124.36002"
     inkscape:cy="-23.169737"
     inkscape:window-width="1440"
     inkscape:window-height="791"
     inkscape:window-x="0"
     inkscape:window-y="25"
     inkscape:window-maximized="1"
     inkscape:current-layer="layer1"
     inkscape:snap-nodes="true" />
  <defs
     id="defs2">
    <clipPath
       clipPathUnits="userSpaceOnUse"
       id="clipPath31933">
      <rect
         style="opacity:0.99;fill:#00b050;fill-opacity:1;stroke:none;stroke-width:0.106619;stroke-linecap:round;stroke-linejoin:round;stroke-miterlimit:4;stroke-dasharray:none;stroke-opacity:0.992157"
         id="rect31935"
         width="50"
         height="20"
         x="-18.674994"
         y="-0.33996487"
         ry="0" />
    </clipPath>
    <clipPath
       clipPathUnits="userSpaceOnUse"
       id="clipPath31937">
      <rect
         style="opacity:0.99;fill:#00b050;fill-opacity:1;stroke:none;stroke-width:0.106619;stroke-linecap:round;stroke-linejoin:round;stroke-miterlimit:4;stroke-dasharray:none;stroke-opacity:0.992157"
         id="rect31939"
         width="50"
         height="20"
         x="-18.674994"
         y="-0.33996487"
         ry="0" />
    </clipPath>
    <clipPath
       clipPathUnits="userSpaceOnUse"
       id="clipPath31941">
      <rect
         style="opacity:0.99;fill:#00b050;fill-opacity:1;stroke:none;stroke-width:0.106619;stroke-linecap:round;stroke-linejoin:round;stroke-miterlimit:4;stroke-dasharray:none;stroke-opacity:0.992157"
         id="rect31943"
         width="50"
         height="20"
         x="-18.674994"
         y="-0.33996487"
         ry="0" />
    </clipPath>
    <clipPath
       clipPathUnits="userSpaceOnUse"
       id="clipPath31945">
      <rect
         style="opacity:0.99;fill:#00b050;fill-opacity:1;stroke:none;stroke-width:0.106619;stroke-linecap:round;stroke-linejoin:round;stroke-miterlimit:4;stroke-dasharray:none;stroke-opacity:0.992157"
         id="rect31947"
         width="50"
         height="20"
         x="-18.674994"
         y="-0.33996487"
         ry="0" />
    </clipPath>
    <clipPath
       clipPathUnits="userSpaceOnUse"
       id="clipPath31949">
      <rect
         style="opacity:0.99;fill:#00b050;fill-opacity:1;stroke:none;stroke-width:0.106619;stroke-linecap:round;stroke-linejoin:round;stroke-miterlimit:4;stroke-dasharray:none;stroke-opacity:0.992157"
         id="rect31951"
         width="50"
         height="20"
         x="-18.674994"
         y="-0.33996487"
         ry="0" />
    </clipPath>
    <clipPath
       clipPathUnits="userSpaceOnUse"
       id="clipPath31953">
      <rect
         style="opacity:0.99;fill:#00b050;fill-opacity:1;stroke:none;stroke-width:0.106619;stroke-linecap:round;stroke-linejoin:round;stroke-miterlimit:4;stroke-dasharray:none;stroke-opacity:0.992157"
         id="rect31955"
         width="50"
         height="20"
         x="-18.674994"
         y="-0.33996487"
         ry="0" />
    </clipPath>
    <clipPath
       clipPathUnits="userSpaceOnUse"
       id="clipPath31957">
      <rect
         style="opacity:0.99;fill:#00b050;fill-opacity:1;stroke:none;stroke-width:0.106619;stroke-linecap:round;stroke-linejoin:round;stroke-miterlimit:4;stroke-dasharray:none;stroke-opacity:0.992157"
         id="rect31959"
         width="50"
         height="20"
         x="-18.674994"
         y="-0.33996487"
         ry="0" />
    </clipPath>
    <clipPath
       clipPathUnits="userSpaceOnUse"
       id="clipPath31961">
      <rect
         style="opacity:0.99;fill:#00b050;fill-opacity:1;stroke:none;stroke-width:0.106619;stroke-linecap:round;stroke-linejoin:round;stroke-miterlimit:4;stroke-dasharray:none;stroke-opacity:0.992157"
         id="rect31963"
         width="50"
         height="20"
         x="-18.674994"
         y="-0.33996487"
         ry="0" />
    </clipPath>
    <clipPath
       clipPathUnits="userSpaceOnUse"
       id="clipPath35740">
      <rect
         style="opacity:0.99;fill:#00b050;fill-opacity:1;stroke:none;stroke-width:0.0533096;stroke-linecap:round;stroke-linejoin:round;stroke-miterlimit:4;stroke-dasharray:none;stroke-opacity:0.992157"
         id="rect35742"
         width="50"
         height="5"
         x="8.4090471"
         y="40.3265"
         ry="0" />
    </clipPath>
    <clipPath
       clipPathUnits="userSpaceOnUse"
       id="clipPath35740-9">
      <rect
         style="opacity:0.99;fill:#00b050;fill-opacity:1;stroke:none;stroke-width:0.0533096;stroke-linecap:round;stroke-linejoin:round;stroke-miterlimit:4;stroke-dasharray:none;stroke-opacity:0.992157"
         id="rect35742-7"
         width="50"
         height="5"
         x="8.4090471"
         y="40.3265"
         ry="0" />
    </clipPath>
    <clipPath
       clipPathUnits="userSpaceOnUse"
       id="clipPath35740-9-9">
      <rect
         style="opacity:0.99;fill:#00b050;fill-opacity:1;stroke:none;stroke-width:0.0533096;stroke-linecap:round;stroke-linejoin:round;stroke-miterlimit:4;stroke-dasharray:none;stroke-opacity:0.992157"
         id="rect35742-7-9"
         width="50"
         height="5"
         x="8.4090471"
         y="40.3265"
         ry="0" />
    </clipPath>
    <clipPath
       clipPathUnits="userSpaceOnUse"
       id="clipPath35740-9-91">
      <rect
         style="opacity:0.99;fill:#00b050;fill-opacity:1;stroke:none;stroke-width:0.0533096;stroke-linecap:round;stroke-linejoin:round;stroke-miterlimit:4;stroke-dasharray:none;stroke-opacity:0.992157"
         id="rect35742-7-5"
         width="50"
         height="5"
         x="8.4090471"
         y="40.3265"
         ry="0" />
    </clipPath>
    <clipPath
       clipPathUnits="userSpaceOnUse"
       id="clipPath35740-9-9-9">
      <rect
         style="opacity:0.99;fill:#00b050;fill-opacity:1;stroke:none;stroke-width:0.0533096;stroke-linecap:round;stroke-linejoin:round;stroke-miterlimit:4;stroke-dasharray:none;stroke-opacity:0.992157"
         id="rect35742-7-9-8"
         width="50"
         height="5"
         x="8.4090471"
         y="40.3265"
         ry="0" />
    </clipPath>
    <clipPath
       clipPathUnits="userSpaceOnUse"
       id="clipPath35740-9-98">
      <rect
         style="opacity:0.99;fill:#00b050;fill-opacity:1;stroke:none;stroke-width:0.0533096;stroke-linecap:round;stroke-linejoin:round;stroke-miterlimit:4;stroke-dasharray:none;stroke-opacity:0.992157"
         id="rect35742-7-3"
         width="50"
         height="5"
         x="8.4090471"
         y="40.3265"
         ry="0" />
    </clipPath>
    <clipPath
       clipPathUnits="userSpaceOnUse"
       id="clipPath35740-9-9-7">
      <rect
         style="opacity:0.99;fill:#00b050;fill-opacity:1;stroke:none;stroke-width:0.0533096;stroke-linecap:round;stroke-linejoin:round;stroke-miterlimit:4;stroke-dasharray:none;stroke-opacity:0.992157"
         id="rect35742-7-9-1"
         width="50"
         height="5"
         x="8.4090471"
         y="40.3265"
         ry="0" />
    </clipPath>
    <clipPath
       clipPathUnits="userSpaceOnUse"
       id="clipPath35740-9-91-2">
      <rect
         style="opacity:0.99;fill:#00b050;fill-opacity:1;stroke:none;stroke-width:0.0533096;stroke-linecap:round;stroke-linejoin:round;stroke-miterlimit:4;stroke-dasharray:none;stroke-opacity:0.992157"
         id="rect35742-7-5-6"
         width="50"
         height="5"
         x="8.4090471"
         y="40.3265"
         ry="0" />
    </clipPath>
    <clipPath
       clipPathUnits="userSpaceOnUse"
       id="clipPath35740-9-9-9-1">
      <rect
         style="opacity:0.99;fill:#00b050;fill-opacity:1;stroke:none;stroke-width:0.0533096;stroke-linecap:round;stroke-linejoin:round;stroke-miterlimit:4;stroke-dasharray:none;stroke-opacity:0.992157"
         id="rect35742-7-9-8-7"
         width="50"
         height="5"
         x="8.4090471"
         y="40.3265"
         ry="0" />
    </clipPath>
    <clipPath
       clipPathUnits="userSpaceOnUse"
       id="clipPath35740-6">
      <rect
         style="opacity:0.99;fill:#00b050;fill-opacity:1;stroke:none;stroke-width:0.0533096;stroke-linecap:round;stroke-linejoin:round;stroke-miterlimit:4;stroke-dasharray:none;stroke-opacity:0.992157"
         id="rect35742-5"
         width="50"
         height="5"
         x="8.4090471"
         y="40.3265"
         ry="0" />
    </clipPath>
    <clipPath
       clipPathUnits="userSpaceOnUse"
       id="clipPath35740-9-98-7">
      <rect
         style="opacity:0.99;fill:#00b050;fill-opacity:1;stroke:none;stroke-width:0.0533096;stroke-linecap:round;stroke-linejoin:round;stroke-miterlimit:4;stroke-dasharray:none;stroke-opacity:0.992157"
         id="rect35742-7-3-1"
         width="50"
         height="5"
         x="8.4090471"
         y="40.3265"
         ry="0" />
    </clipPath>
    <clipPath
       clipPathUnits="userSpaceOnUse"
       id="clipPath35740-9-9-7-6">
      <rect
         style="opacity:0.99;fill:#00b050;fill-opacity:1;stroke:none;stroke-width:0.0533096;stroke-linecap:round;stroke-linejoin:round;stroke-miterlimit:4;stroke-dasharray:none;stroke-opacity:0.992157"
         id="rect35742-7-9-1-0"
         width="50"
         height="5"
         x="8.4090471"
         y="40.3265"
         ry="0" />
    </clipPath>
    <clipPath
       clipPathUnits="userSpaceOnUse"
       id="clipPath35740-9-91-2-9">
      <rect
         style="opacity:0.99;fill:#00b050;fill-opacity:1;stroke:none;stroke-width:0.0533096;stroke-linecap:round;stroke-linejoin:round;stroke-miterlimit:4;stroke-dasharray:none;stroke-opacity:0.992157"
         id="rect35742-7-5-6-2"
         width="50"
         height="5"
         x="8.4090471"
         y="40.3265"
         ry="0" />
    </clipPath>
    <clipPath
       clipPathUnits="userSpaceOnUse"
       id="clipPath35740-9-9-9-1-9">
      <rect
         style="opacity:0.99;fill:#00b050;fill-opacity:1;stroke:none;stroke-width:0.0533096;stroke-linecap:round;stroke-linejoin:round;stroke-miterlimit:4;stroke-dasharray:none;stroke-opacity:0.992157"
         id="rect35742-7-9-8-7-6"
         width="50"
         height="5"
         x="8.4090471"
         y="40.3265"
         ry="0" />
    </clipPath>
    <clipPath
       clipPathUnits="userSpaceOnUse"
       id="clipPath35740-6-0">
      <rect
         style="opacity:0.99;fill:#00b050;fill-opacity:1;stroke:none;stroke-width:0.0533096;stroke-linecap:round;stroke-linejoin:round;stroke-miterlimit:4;stroke-dasharray:none;stroke-opacity:0.992157"
         id="rect35742-5-2"
         width="50"
         height="5"
         x="8.4090471"
         y="40.3265"
         ry="0" />
    </clipPath>
    <clipPath
       clipPathUnits="userSpaceOnUse"
       id="clipPath35740-9-8">
      <rect
         style="opacity:0.99;fill:#00b050;fill-opacity:1;stroke:none;stroke-width:0.0533096;stroke-linecap:round;stroke-linejoin:round;stroke-miterlimit:4;stroke-dasharray:none;stroke-opacity:0.992157"
         id="rect35742-7-4"
         width="50"
         height="5"
         x="8.4090471"
         y="40.3265"
         ry="0" />
    </clipPath>
    <clipPath
       clipPathUnits="userSpaceOnUse"
       id="clipPath35740-9-9-4">
      <rect
         style="opacity:0.99;fill:#00b050;fill-opacity:1;stroke:none;stroke-width:0.0533096;stroke-linecap:round;stroke-linejoin:round;stroke-miterlimit:4;stroke-dasharray:none;stroke-opacity:0.992157"
         id="rect35742-7-9-80"
         width="50"
         height="5"
         x="8.4090471"
         y="40.3265"
         ry="0" />
    </clipPath>
    <clipPath
       clipPathUnits="userSpaceOnUse"
       id="clipPath35740-9-91-1">
      <rect
         style="opacity:0.99;fill:#00b050;fill-opacity:1;stroke:none;stroke-width:0.0533096;stroke-linecap:round;stroke-linejoin:round;stroke-miterlimit:4;stroke-dasharray:none;stroke-opacity:0.992157"
         id="rect35742-7-5-5"
         width="50"
         height="5"
         x="8.4090471"
         y="40.3265"
         ry="0" />
    </clipPath>
    <clipPath
       clipPathUnits="userSpaceOnUse"
       id="clipPath35740-9-9-9-11">
      <rect
         style="opacity:0.99;fill:#00b050;fill-opacity:1;stroke:none;stroke-width:0.0533096;stroke-linecap:round;stroke-linejoin:round;stroke-miterlimit:4;stroke-dasharray:none;stroke-opacity:0.992157"
         id="rect35742-7-9-8-1"
         width="50"
         height="5"
         x="8.4090471"
         y="40.3265"
         ry="0" />
    </clipPath>
    <clipPath
       clipPathUnits="userSpaceOnUse"
       id="clipPath35740-5">
      <rect
         style="opacity:0.99;fill:#00b050;fill-opacity:1;stroke:none;stroke-width:0.0533096;stroke-linecap:round;stroke-linejoin:round;stroke-miterlimit:4;stroke-dasharray:none;stroke-opacity:0.992157"
         id="rect35742-1"
         width="50"
         height="5"
         x="8.4090471"
         y="40.3265"
         ry="0" />
    </clipPath>
  </defs>
  <g
     inkscape:label="Layer 1"
     inkscape:groupmode="layer"
     id="layer1"
     transform="translate(3.9882734,-24.752176)">
    <rect
       style="fill:#1d4289;fill-opacity:1;stroke:none;stroke-width:0.0530331;stroke-linecap:square;stroke-linejoin:round;stroke-miterlimit:4;stroke-dasharray:none;stroke-opacity:1"
       id="rect35766-3-0"
       width="50"
       height="5"
       x="-3.9882734"
       y="24.752176" />
    <path
       id="path31487-2-0-1-5-53-45"
       style="fill:none;stroke:#00b050;stroke-width:5;stroke-linecap:square;stroke-linejoin:miter;stroke-miterlimit:4;stroke-dasharray:none;stroke-opacity:1"
       d="M -3.0492877,52.826499 16.950712,32.8265 m 32.91667,20 20,-19.999999 M 39.284048,52.8265 l 20,-19.999999 M 28.700714,52.8265 l 20,-19.999999 M 18.11738,52.8265 l 20,-20 M 7.5340458,52.826499 27.534046,32.8265"
       sodipodi:nodetypes="cccccccccccc"
       clip-path="url(#clipPath35740-9-98)"
       transform="translate(2.5140242,-14.902334)" />
    <path
       id="path31487-2-0-1-5-53-4-1"
       style="fill:none;stroke:#00b050;stroke-width:5;stroke-linecap:square;stroke-linejoin:miter;stroke-miterlimit:4;stroke-dasharray:none;stroke-opacity:1"
       d="M -3.0492877,52.826499 16.950712,32.8265 m 32.91667,20 20,-19.999999 M 39.284048,52.8265 l 20,-19.999999 M 28.700714,52.8265 l 20,-19.999999 M 18.11738,52.8265 l 20,-20 M 7.5340458,52.826499 27.534046,32.8265"
       sodipodi:nodetypes="cccccccccccc"
       clip-path="url(#clipPath35740-9-9-7)"
       transform="translate(-18.652644,-14.902335)" />
    <path
       id="path31487-2-0-1-5-53-3-2"
       style="fill:none;stroke:#00b050;stroke-width:5;stroke-linecap:square;stroke-linejoin:miter;stroke-miterlimit:4;stroke-dasharray:none;stroke-opacity:1"
       d="M -3.0492877,52.826499 16.950712,32.8265 m 32.91667,20 20,-19.999999 M 39.284048,52.8265 l 20,-19.999999 M 28.700714,52.8265 l 20,-19.999999 M 18.11738,52.8265 l 20,-20 M 7.5340458,52.826499 27.534046,32.8265"
       sodipodi:nodetypes="cccccccccccc"
       clip-path="url(#clipPath35740-9-91-2)"
       transform="translate(6.9739213,-19.362231)" />
    <path
       id="path31487-2-0-1-5-53-4-0-3"
       style="fill:none;stroke:#00b050;stroke-width:5;stroke-linecap:square;stroke-linejoin:miter;stroke-miterlimit:4;stroke-dasharray:none;stroke-opacity:1"
       d="M -3.0492877,52.826499 16.950712,32.8265 m 32.91667,20 20,-19.999999 M 39.284048,52.8265 l 20,-19.999999 M 28.700714,52.8265 l 20,-19.999999 M 18.11738,52.8265 l 20,-20 M 7.5340458,52.826499 27.534046,32.8265"
       sodipodi:nodetypes="cccccccccccc"
       clip-path="url(#clipPath35740-9-9-9-1)"
       transform="translate(-14.192747,-19.362232)" />
    <rect
       style="fill:#00b050;fill-opacity:0.992157;stroke:none;stroke-width:0.0530331;stroke-linecap:square;stroke-linejoin:round;stroke-miterlimit:4;stroke-dasharray:none;stroke-opacity:1"
       id="rect35766-7"
       width="50"
       height="5"
       x="-3.9882741"
       y="29.752176" />
    <path
       id="path31487-2-0-1-5-2"
       style="fill:none;stroke:#1d4289;stroke-width:5;stroke-linecap:square;stroke-linejoin:miter;stroke-miterlimit:4;stroke-dasharray:none;stroke-opacity:1"
       d="M -3.0492877,52.826499 16.950712,32.8265 m 32.91667,20 20,-19.999999 M 39.284048,52.8265 l 20,-19.999999 M 28.700714,52.8265 l 20,-19.999999 M 18.11738,52.8265 l 20,-20 M 7.5340458,52.826499 27.534046,32.8265"
       sodipodi:nodetypes="cccccccccccc"
       clip-path="url(#clipPath35740-6)"
       transform="translate(-12.397321,-10.574324)" />
    <rect
       style="fill:#000000;fill-opacity:0.5;stroke:none;stroke-width:0.0750001;stroke-linecap:square;stroke-linejoin:round;stroke-miterlimit:4;stroke-dasharray:none;stroke-opacity:1"
       id="rect50670-4"
       width="50"
       height="10"
       x="-4.0315976"
       y="24.752176" />
    <g
       aria-label="PROJECTS"
       id="text46776-1"
       style="font-style:italic;font-weight:bold;font-size:4.9389px;line-height:1.25;font-family:'Kayak Sans';-inkscape-font-specification:'Kayak Sans Bold Italic';text-align:center;text-anchor:middle;fill:#ffffff;stroke-width:0.264583">
      <path
         d="m 11.26303,29.527899 0.144694,-1.022506 h 0.648713 q 0.253215,0 0.393087,0.09646 0.180867,0.127813 0.139871,0.41479 -0.03858,0.286977 -0.258039,0.41479 -0.163986,0.09646 -0.419613,0.09646 z m -0.277331,-1.512056 -0.487137,3.475076 h 0.489549 l 0.204983,-1.473471 h 0.648713 q 0.499196,0 0.836816,-0.272507 0.335208,-0.272508 0.400321,-0.728295 0.0627,-0.455787 -0.195337,-0.728295 -0.26045,-0.272508 -0.759646,-0.272508 z"
         id="path109307" />
      <path
         d="m 13.819296,29.527899 0.144695,-1.024918 h 0.648713 q 0.253215,0 0.393086,0.09888 0.180868,0.127813 0.139871,0.41479 -0.03859,0.286977 -0.258038,0.41479 -0.163987,0.09646 -0.419614,0.09646 z m 1.815914,-0.511253 q 0.0627,-0.455787 -0.195337,-0.728295 -0.26045,-0.272508 -0.759645,-0.272508 h -1.138262 l -0.487138,3.475076 h 0.489549 l 0.204984,-1.473471 h 0.557073 l 0.499196,1.473471 h 0.540192 l -0.518488,-1.53376 q 0.332797,-0.101286 0.545015,-0.344855 0.21463,-0.248392 0.262861,-0.595658 z"
         id="path109309" />
      <path
         d="m 17.021865,31.00137 q -0.446141,0 -0.64389,-0.325562 -0.200161,-0.327974 -0.115756,-0.923632 0.0844,-0.595659 0.373794,-0.921221 0.2918,-0.327974 0.73553,-0.327974 0.44614,0 0.643889,0.327974 0.200161,0.325562 0.115756,0.921221 -0.08441,0.595658 -0.373794,0.923632 -0.2918,0.325562 -0.735529,0.325562 z m 0.419613,-2.985527 q -0.658359,0 -1.106912,0.465434 -0.448552,0.467845 -0.561896,1.270899 -0.113344,0.805465 0.204984,1.270898 0.315916,0.467845 0.974275,0.467845 0.658359,0 1.106912,-0.467845 0.448552,-0.465433 0.561896,-1.270898 0.113344,-0.803054 -0.204984,-1.270899 -0.315916,-0.465434 -0.974275,-0.465434 z"
         id="path109311" />
      <path
         d="m 20.149673,30.205551 q -0.01929,0.132637 -0.05788,0.250804 -0.04582,0.149517 -0.12299,0.258038 -0.192926,0.286977 -0.549839,0.286977 -0.376205,0 -0.482314,-0.313504 l -0.470257,0.209806 q 0.09646,0.286977 0.325562,0.441318 0.226688,0.151929 0.557073,0.151929 0.513665,0 0.85852,-0.344855 0.347267,-0.344855 0.42926,-0.940513 l 0.308681,-2.192119 h -0.489549 z"
         id="path109313" />
      <path
         d="m 21.529093,28.015843 -0.487137,3.475076 h 2.230704 l 0.06994,-0.489549 h -1.743567 l 0.142283,-1.003214 h 1.179258 l 0.06994,-0.489549 h -1.18167 l 0.142282,-1.005626 h 1.741156 l 0.06993,-0.487138 z"
         id="path109315" />
      <path
         d="m 24.801596,31.00137 q -0.463022,0 -0.670417,-0.325562 -0.207395,-0.327974 -0.12299,-0.923632 0.08199,-0.595659 0.38344,-0.921221 0.299035,-0.327974 0.762057,-0.327974 0.619774,0 0.771703,0.564308 l 0.479903,-0.185691 q -0.113344,-0.419614 -0.419614,-0.64389 -0.306269,-0.221865 -0.764468,-0.221865 -0.67524,0 -1.131027,0.465434 -0.458199,0.467845 -0.571543,1.270899 -0.113344,0.805465 0.21463,1.270898 0.325562,0.467845 1.000802,0.467845 0.455787,0 0.829581,-0.229099 0.373794,-0.2291 0.602893,-0.646302 l -0.42926,-0.183279 q -0.308681,0.569131 -0.93569,0.569131 z"
         id="path109317" />
      <path
         d="m 26.578926,28.015843 -0.06752,0.48955 h 0.993568 l -0.419614,2.985526 h 0.489549 l 0.419614,-2.985526 h 0.993568 l 0.06752,-0.48955 z"
         id="path109319" />
      <path
         d="m 30.155288,29.46761 q -0.115755,0 -0.212218,-0.01688 -0.127814,-0.0217 -0.21463,-0.06752 -0.231511,-0.120579 -0.192926,-0.397909 0.041,-0.277331 0.303858,-0.39791 0.101286,-0.04582 0.233923,-0.06752 0.101286,-0.01688 0.217041,-0.01688 0.113344,0 0.207395,0.01688 0.12299,0.01929 0.212219,0.0627 0.226687,0.115755 0.202572,0.378617 l 0.49196,-0.041 q 0.03376,-0.41479 -0.248391,-0.658359 -0.282154,-0.245981 -0.798231,-0.245981 -0.532957,0 -0.88987,0.262862 -0.356913,0.265273 -0.419614,0.706591 -0.0627,0.441317 0.219453,0.70659 0.284566,0.265273 0.817523,0.265273 0.125402,0 0.231511,0.01688 0.135048,0.0217 0.2291,0.07235 0.248392,0.132637 0.204983,0.434083 -0.041,0.301447 -0.325562,0.431672 -0.108521,0.05064 -0.250803,0.07235 -0.110933,0.01688 -0.233923,0.01688 -0.125402,0 -0.231511,-0.01688 -0.135048,-0.0217 -0.229099,-0.07235 -0.248392,-0.130225 -0.207395,-0.431672 h -0.01447 l -0.477491,0.03617 q -0.05064,0.453376 0.241157,0.713825 0.2918,0.26045 0.848873,0.26045 0.569132,0 0.935691,-0.272508 0.36897,-0.270096 0.434083,-0.737941 0.06511,-0.470256 -0.226688,-0.740352 -0.2918,-0.272508 -0.85852,-0.272508 z"
         id="path109321" />
    </g>
  </g>
</svg>
